<svg id="Group_42618" data-name="Group 42618" xmlns="http://www.w3.org/2000/svg" xmlns:xlink="http://www.w3.org/1999/xlink" width="103.076" height="103.076" viewBox="0 0 103.076 103.076">
  <defs>
    <clipPath id="clip-path">
      <rect id="Rectangle_14786" data-name="Rectangle 14786" width="103.076" height="103.076" fill="none"/>
    </clipPath>
  </defs>
  <rect id="Rectangle_14780" data-name="Rectangle 14780" width="100.056" height="6.04" transform="translate(1.51 9.563)" fill="#d9d2ea"/>
  <path id="Path_50" data-name="Path 50" d="M100.09,3.236H19.562l-4.027,8.053h88.581Z" transform="translate(-8.288 -1.726)" fill="#d9d2ea"/>
  <rect id="Rectangle_14781" data-name="Rectangle 14781" width="92.608" height="65.832" transform="translate(5.234 15.602)" fill="#fff"/>
  <g id="Group_42617" data-name="Group 42617">
    <g id="Group_42616" data-name="Group 42616" clip-path="url(#clip-path)">
      <path id="Path_51" data-name="Path 51" d="M109.9,204.475a4.026,4.026,0,1,1-4.027-4.027,4.026,4.026,0,0,1,4.027,4.027" transform="translate(-54.331 -106.935)" fill="#d9d2ea"/>
      <path id="Path_52" data-name="Path 52" d="M142.116,67.966a10.066,10.066,0,0,0-10.062,10.352,10.176,10.176,0,0,0,9.776,9.776,10.066,10.066,0,0,0,10.352-10.061h-8.053a2.013,2.013,0,0,1-2.013-2.013Z" transform="translate(-70.446 -36.258)" fill="#fadd00"/>
      <path id="Path_53" data-name="Path 53" d="M164.415,50.705V61.778a2.013,2.013,0,0,0,2.013,2.013H177.5a13.086,13.086,0,0,0-13.086-13.086" transform="translate(-87.712 -27.05)" fill="#fadd00"/>
      <rect id="Rectangle_14782" data-name="Rectangle 14782" width="6.04" height="49.726" transform="translate(32.412 23.655)" fill="#d9d2ea"/>
      <rect id="Rectangle_14783" data-name="Rectangle 14783" width="6.04" height="39.66" transform="translate(46.505 33.721)" fill="#d9d2ea"/>
      <rect id="Rectangle_14784" data-name="Rectangle 14784" width="6.04" height="25.568" transform="translate(18.32 47.813)" fill="#d9d2ea"/>
      <rect id="Rectangle_14785" data-name="Rectangle 14785" width="24.158" height="12.079" transform="translate(65.631 61.302)" fill="#d9d2ea"/>
      <path id="Path_54" data-name="Path 54" d="M101.566,8.053h-4.8L93.153.835A1.509,1.509,0,0,0,91.8,0H11.274A1.509,1.509,0,0,0,9.923.835L6.314,8.053H1.51A1.51,1.51,0,0,0,0,9.563V15.6a1.51,1.51,0,0,0,1.51,1.51H3.724V81.434a1.51,1.51,0,0,0,1.51,1.51H50.028v9.271a5.536,5.536,0,1,0,3.02,0V82.944H97.842a1.51,1.51,0,0,0,1.51-1.51V17.112h2.215a1.51,1.51,0,0,0,1.51-1.51V9.563a1.51,1.51,0,0,0-1.51-1.51M54.054,97.54a2.516,2.516,0,1,1-2.516-2.516,2.519,2.519,0,0,1,2.516,2.516M12.207,3.02H90.869l2.516,5.033H9.691Zm84.125,76.9H6.744V17.112H96.332Zm3.724-65.832H3.02v-3.02h97.036Z" transform="translate(0 0)" fill="#4f26ad"/>
      <path id="Path_55" data-name="Path 55" d="M140.062,87.877q.166,0,.331,0a11.576,11.576,0,0,0,11.572-11.576,1.51,1.51,0,0,0-1.51-1.51H142.4a.5.5,0,0,1-.5-.5V66.24a1.51,1.51,0,0,0-1.51-1.51,11.576,11.576,0,0,0-11.572,11.9,11.716,11.716,0,0,0,11.245,11.244m-5.807-17.537a8.482,8.482,0,0,1,4.624-2.459v6.411a3.527,3.527,0,0,0,3.523,3.523h6.411a8.564,8.564,0,0,1-8.668,7.043,8.658,8.658,0,0,1-8.309-8.309,8.494,8.494,0,0,1,2.419-6.209" transform="translate(-68.719 -34.532)" fill="#4f26ad"/>
      <path id="Path_56" data-name="Path 56" d="M164.7,63.575h11.072a1.51,1.51,0,0,0,1.51-1.51,14.612,14.612,0,0,0-14.6-14.6,1.51,1.51,0,0,0-1.51,1.51V60.052a3.527,3.527,0,0,0,3.523,3.523m-.5-12.988a11.6,11.6,0,0,1,9.968,9.968H164.7a.5.5,0,0,1-.5-.5Z" transform="translate(-85.986 -25.324)" fill="#4f26ad"/>
      <path id="Path_57" data-name="Path 57" d="M26.755,100.215H71.045a1.51,1.51,0,1,0,0-3.02H67.522V59.045a1.51,1.51,0,0,0-1.51-1.51h-6.04a1.51,1.51,0,0,0-1.51,1.51V97.2H53.43V48.979a1.51,1.51,0,0,0-1.51-1.51H45.88a1.51,1.51,0,0,0-1.51,1.51V97.2H39.337V73.137a1.51,1.51,0,0,0-1.51-1.51h-6.04a1.51,1.51,0,0,0-1.51,1.51V97.2H26.755a1.51,1.51,0,0,0,0,3.02m34.728-39.66H64.5V97.2h-3.02ZM47.39,50.489h3.02V97.2H47.39ZM33.3,74.647h3.02V97.2H33.3Z" transform="translate(-13.468 -25.324)" fill="#4f26ad"/>
      <path id="Path_58" data-name="Path 58" d="M163.112,128.166H138.954a1.51,1.51,0,0,0-1.51,1.51v12.079a1.51,1.51,0,0,0,1.51,1.51h24.158a1.51,1.51,0,0,0,1.51-1.51V129.676a1.51,1.51,0,0,0-1.51-1.51m-1.51,12.079H140.464v-9.059H161.6Z" transform="translate(-73.324 -68.374)" fill="#4f26ad"/>
      <path id="Path_59" data-name="Path 59" d="M151.9,144.132h12.079a1.51,1.51,0,1,0,0-3.02H151.9a1.51,1.51,0,1,0,0,3.02" transform="translate(-80.23 -75.28)" fill="#4f26ad"/>
    </g>
  </g>
</svg>
