<svg id="Group_42612" data-name="Group 42612" xmlns="http://www.w3.org/2000/svg" xmlns:xlink="http://www.w3.org/1999/xlink" width="73.634" height="103.289" viewBox="0 0 73.634 103.289">
  <defs>
    <clipPath id="clip-path">
      <rect id="Rectangle_14777" data-name="Rectangle 14777" width="73.634" height="103.289" fill="none"/>
    </clipPath>
  </defs>
  <g id="Group_42611" data-name="Group 42611" clip-path="url(#clip-path)">
    <path id="Path_22" data-name="Path 22" d="M74.875,31.488A28.243,28.243,0,1,0,22.749,46.568a48.992,48.992,0,0,1,7.745,26.175v1.11H62.772V72.41a47.732,47.732,0,0,1,7.665-25.717,28.1,28.1,0,0,0,4.439-15.2" transform="translate(-9.816 -1.732)" fill="#fff"/>
    <path id="Path_23" data-name="Path 23" d="M95.106,45.346A8.058,8.058,0,0,0,91.3,38.5a4.428,4.428,0,0,0-4.26-5.647h-.02A4.035,4.035,0,0,0,83,29.207h0a4.035,4.035,0,0,0-4.036,4.034V57.45A4.035,4.035,0,0,0,83,61.484h0A4.036,4.036,0,0,0,87.04,57.45V57.3a3.873,3.873,0,0,0,3.768-4.824,8.062,8.062,0,0,0,4.3-7.13" transform="translate(-42.15 -15.59)" fill="#fadd00"/>
    <path id="Path_24" data-name="Path 24" d="M44.351,45.346A8.058,8.058,0,0,1,48.157,38.5a4.428,4.428,0,0,1,4.26-5.647h.02a4.036,4.036,0,0,1,8.053.39V57.45a4.036,4.036,0,0,1-8.073,0V57.3a3.873,3.873,0,0,1-3.768-4.824,8.062,8.062,0,0,1-4.3-7.13" transform="translate(-23.673 -15.59)" fill="#fadd00"/>
    <path id="Path_25" data-name="Path 25" d="M71.718,156.12H35.405a4.034,4.034,0,0,1-4.034-4.035v-2.017a4.035,4.035,0,0,1,4.034-4.035H71.718a4.035,4.035,0,0,1,4.035,4.035v2.017a4.035,4.035,0,0,1-4.035,4.035" transform="translate(-16.745 -77.947)" fill="#d9d2ea"/>
    <path id="Path_26" data-name="Path 26" d="M72.886,175.737H52.713a4.034,4.034,0,0,1-4.035-4.035v-4.035H76.921V171.7a4.035,4.035,0,0,1-4.035,4.035" transform="translate(-25.983 -89.495)" fill="#d9d2ea"/>
    <path id="Path_27" data-name="Path 27" d="M72.886,193.045H52.713a4.035,4.035,0,1,1,0-8.07H72.886a4.035,4.035,0,0,1,0,8.07" transform="translate(-25.983 -98.733)" fill="#d9d2ea"/>
    <path id="Path_28" data-name="Path 28" d="M73.762,209.747h-8.07a4.035,4.035,0,0,1-4.035-4.035v-3.43H77.8v3.43a4.035,4.035,0,0,1-4.035,4.035" transform="translate(-32.911 -107.972)" fill="#d9d2ea"/>
    <path id="Path_29" data-name="Path 29" d="M90.387,68.655a1.513,1.513,0,1,0-1.74,2.476c.093.065.889.678.168,2.027a1.513,1.513,0,1,0,2.669,1.426,4.451,4.451,0,0,0-1.1-5.93" transform="translate(-46.974 -36.499)" fill="#4f26ad"/>
    <path id="Path_30" data-name="Path 30" d="M72.75,36.083c.016-.178.025-.357.025-.536a5.952,5.952,0,0,0-4.72-5.815,5.55,5.55,0,0,0-9.3-2.027,5.55,5.55,0,0,0-9.3,2.027,5.954,5.954,0,0,0-4.72,5.815c0,.179.008.358.025.536a9.576,9.576,0,0,0,.523,15.442c0,.051,0,.1,0,.153A5.412,5.412,0,0,0,49.3,56.9a5.548,5.548,0,0,0,9.459,2.622,5.548,5.548,0,0,0,9.46-2.622,5.412,5.412,0,0,0,4.012-5.219c0-.051,0-.1,0-.153a9.576,9.576,0,0,0,.523-15.442M54.72,58.239A2.526,2.526,0,0,1,52.2,55.717v-.151a1.513,1.513,0,0,0-1.511-1.513,2.362,2.362,0,0,1-2.3-2.947,1.512,1.512,0,0,0-.76-1.7,6.547,6.547,0,0,1-.98-10.946,4.093,4.093,0,0,1,2.534,3.166,1.513,1.513,0,0,0,1.509,1.425l.09,0a1.513,1.513,0,0,0,1.422-1.6c-.2-3.4-2.96-5.126-4.429-5.807,0-.032,0-.064,0-.1a2.92,2.92,0,0,1,2.9-2.916H50.7a1.513,1.513,0,0,0,1.506-1.368,2.523,2.523,0,0,1,5.034.245V55.717a2.526,2.526,0,0,1-2.524,2.522m15.17-8.833a1.513,1.513,0,0,0-.76,1.7,2.362,2.362,0,0,1-2.3,2.947,1.513,1.513,0,0,0-1.512,1.513v.151a2.524,2.524,0,0,1-5.047,0V31.509a2.523,2.523,0,0,1,5.034-.245,1.513,1.513,0,0,0,1.506,1.368h.036a2.92,2.92,0,0,1,2.9,2.916c0,.032,0,.064,0,.1-1.469.681-4.231,2.406-4.429,5.807a1.513,1.513,0,0,0,1.422,1.6l.09,0a1.513,1.513,0,0,0,1.509-1.425,4.089,4.089,0,0,1,2.534-3.166,6.547,6.547,0,0,1-.98,10.946" transform="translate(-21.94 -13.857)" fill="#4f26ad"/>
    <path id="Path_31" data-name="Path 31" d="M64.565,71.427l-.026.019L62.8,68.97a4.451,4.451,0,0,0-1.1,5.93,1.513,1.513,0,0,0,2.669-1.426c-.623-1.166-.145-1.782.194-2.046" transform="translate(-32.58 -36.814)" fill="#4f26ad"/>
    <path id="Path_32" data-name="Path 32" d="M147.763,63.6h2.421a1.513,1.513,0,1,0,0-3.026h-2.421a1.513,1.513,0,1,0,0,3.026" transform="translate(-78.063 -32.334)" fill="#4f26ad"/>
    <path id="Path_33" data-name="Path 33" d="M147.764,45.327a1.5,1.5,0,0,0,.748-.2l2.1-1.2a1.513,1.513,0,1,0-1.5-2.629l-2.1,1.2a1.513,1.513,0,0,0,.751,2.828" transform="translate(-78.063 -21.94)" fill="#4f26ad"/>
    <path id="Path_34" data-name="Path 34" d="M150.608,78.878l-2.1-1.2a1.513,1.513,0,1,0-1.5,2.629l2.1,1.2a1.513,1.513,0,1,0,1.5-2.629" transform="translate(-78.063 -41.358)" fill="#4f26ad"/>
    <path id="Path_35" data-name="Path 35" d="M3.934,60.576H1.513a1.513,1.513,0,1,0,0,3.026H3.934a1.513,1.513,0,0,0,0-3.026" transform="translate(0 -32.333)" fill="#4f26ad"/>
    <path id="Path_36" data-name="Path 36" d="M1.459,43.932l2.1,1.2a1.513,1.513,0,1,0,1.5-2.629l-2.1-1.2a1.513,1.513,0,1,0-1.5,2.628" transform="translate(-0.371 -21.941)" fill="#4f26ad"/>
    <path id="Path_37" data-name="Path 37" d="M3.556,77.682l-2.1,1.2a1.513,1.513,0,1,0,1.5,2.629l2.1-1.2a1.513,1.513,0,0,0-1.5-2.629" transform="translate(-0.371 -41.358)" fill="#4f26ad"/>
    <path id="Path_38" data-name="Path 38" d="M44.686,0A29.759,29.759,0,0,0,19.738,45.645a48.141,48.141,0,0,1,7.289,20.928h-.283A5.554,5.554,0,0,0,21.2,72.12v2.017a5.554,5.554,0,0,0,5.548,5.548h2.522v2.522a5.533,5.533,0,0,0,1.746,4.035,5.544,5.544,0,0,0,3.8,9.583h.5v1.916a5.554,5.554,0,0,0,5.548,5.548h8.069a5.554,5.554,0,0,0,5.548-5.548V95.825h.5a5.544,5.544,0,0,0,3.8-9.583,5.533,5.533,0,0,0,1.746-4.035V79.686h2.522A5.554,5.554,0,0,0,68.6,74.138V72.12a5.554,5.554,0,0,0-5.548-5.548h-.312a46.743,46.743,0,0,1,7.234-20.8A29.758,29.758,0,0,0,44.686,0m6.771,97.74a2.524,2.524,0,0,1-2.522,2.522H40.866a2.524,2.524,0,0,1-2.522-2.522V95.825H51.457Zm6.052-7.464A2.525,2.525,0,0,1,54.987,92.8H34.814a2.522,2.522,0,1,1,0-5.043H54.987a2.525,2.525,0,0,1,2.522,2.521m0-8.069a2.525,2.525,0,0,1-2.522,2.521H34.814a2.525,2.525,0,0,1-2.522-2.521V79.686H57.509Zm8.07-10.087v2.017a2.525,2.525,0,0,1-2.522,2.522H26.744a2.524,2.524,0,0,1-2.521-2.522V72.12A2.524,2.524,0,0,1,26.744,69.6H63.057a2.525,2.525,0,0,1,2.522,2.521M67.43,44.145a49.751,49.751,0,0,0-7.724,22.428H50.941L54.424,54.38a1.513,1.513,0,0,0-2.909-.831L47.794,66.573H42.007L38.286,53.548a1.513,1.513,0,0,0-2.91.831L38.86,66.573H30.067A51.134,51.134,0,0,0,22.3,44.027a26.73,26.73,0,1,1,45.135.118" transform="translate(-8.083 0)" fill="#4f26ad"/>
  </g>
</svg>
