<svg role="img" aria-label="Kollabra Logo" xmlns="http://www.w3.org/2000/svg" id="logo_header" version="1.1" viewBox="0 0 209.4 36.9"><defs><style>.logo_i{isolation:isolate}.logo_s3{fill:#4f26ad}</style></defs><g id="kollabra" class="logo_i"><path fill="#1b0157" d="M70.8 34.6h-10l-3.3-9.9h-.2v9.9h-8.8V0h8.9v19.1h.2l3.9-10.3H71l-5.5 12.9 5.2 13Zm1.2-13c0-4.7.9-8.2 2.7-10.3 1.8-2.1 4.7-3.2 8.5-3.2s6.7 1 8.5 3.1c1.8 2.1 2.6 5.5 2.6 10.3s-.9 8.2-2.6 10.4-4.6 3.2-8.5 3.2-6.8-1.1-8.6-3.2c-1.8-2.2-2.7-5.6-2.7-10.3Zm13-5.1c-.2-.7-.8-1.1-1.8-1.1s-1.5.4-1.8 1.1c-.3.7-.4 2.2-.4 4.5v1.3c0 2.6.1 4.2.4 5 .3.8.8 1.1 1.8 1.1s1.5-.4 1.8-1.1c.3-.8.4-2.3.4-4.6v-1.6c0-2.3-.1-3.9-.4-4.6Zm12.1 12.2V0h8.9v25.8c0 .6.1 1 .4 1.3.3.3.7.4 1.4.4l-.7 7.7h-3c-2.4 0-4.1-.5-5.3-1.5-1.2-1-1.8-2.7-1.8-5Zm12.6 0V0h8.9v25.8c0 .6.1 1 .4 1.3.3.3.7.4 1.4.4l-.7 7.7h-3c-2.4 0-4.1-.5-5.3-1.5-1.2-1-1.8-2.7-1.8-5Zm32.1-13.2-.3 11.2c0 .7.2 1.1.5 1.4s.9.4 1.8.4L143 35c-2.1.1-3.2.2-3.5.2-2.7 0-4.4-.9-5.1-2.8h-.3c-1.3 1.8-3.4 2.8-6.2 2.8s-3.8-.7-4.9-2.1-1.7-3.2-1.7-5.6.9-5.1 2.8-6.2c1.9-1.2 4.8-1.9 8.8-2.3v-1.3c0-1-.5-1.5-1.5-1.5-1.7 0-4.4.5-8.1 1.6l-1.4-7.9c4.6-1.2 8.4-1.8 11.5-1.8s5.2.6 6.4 1.8c1.2 1.2 1.8 3.1 1.8 5.6Zm-10.4 13.3c1.3 0 2-.7 2-2.1v-2.6c-1.3.2-2.3.5-2.8.8-.6.4-.8 1-.8 1.9 0 1.3.6 2 1.7 2Zm35-17.7c1.1 2 1.7 5.3 1.7 10.1s-.6 8.3-1.8 10.6c-1.2 2.3-3.5 3.4-7 3.4s-4.6-.7-5.7-2.1h-.2l-.5 1.6h-7.1V0h9v9.3h.2c1.2-.8 2.7-1.2 4.6-1.2 3.4 0 5.6 1 6.8 2.9Zm-7.7 15.4c.1-.6.2-1.2.2-1.9v-3.5c0-1.7-.1-3-.4-3.9s-.8-1.4-1.5-1.4-1.5.2-2.3.6v11.2c.7.3 1.3.5 2 .5s1.1-.1 1.3-.4c.3-.2.5-.7.6-1.3Zm21.3-6.4v14.5h-9V8.7h7.9l.5 1.6h.2c.8-.9 1.7-1.5 2.5-1.8.8-.3 2.2-.4 4.1-.4l-.4 8.6h-2.5c-1.4 0-2.3.2-2.8.6-.5.4-.7 1.3-.7 2.7Zm27.4-4.6-.3 11.2c0 .7.2 1.1.5 1.4s.9.4 1.8.4l-.8 6.5c-2.1.1-3.2.2-3.5.2-2.7 0-4.4-.9-5.1-2.8h-.3c-1.3 1.8-3.4 2.8-6.2 2.8s-3.8-.7-4.9-2.1-1.7-3.2-1.7-5.6.9-5.1 2.8-6.2c1.9-1.2 4.8-1.9 8.8-2.3v-1.3c0-1-.5-1.5-1.5-1.5-1.7 0-4.4.5-8.1 1.6l-1.4-7.9c4.6-1.2 8.4-1.8 11.5-1.8s5.2.6 6.4 1.8c1.2 1.2 1.8 3.1 1.8 5.6ZM197 28.8c1.3 0 2-.7 2-2.1v-2.6c-1.3.2-2.3.5-2.8.8-.6.4-.8 1-.8 1.9 0 1.3.6 2 1.7 2Z" class="logo_i"/></g><g id="Group_12"><g id="Group_10"><path id="Path_18" d="m5.2 14.2 2.6 2.6 2.3-6.8 7.3-2.4L14.8 5 7.7 7.3l-2.4 6.8Zm-2.4-2.4 9.4-9.4L9.9.1.5 9.5l2.3 2.3Z" class="logo_s3"/><path id="Path_16" d="m22.5 5.6-2.6 2.6 6.8 2.3 2.4 7.3 2.6-2.6-2.3-7.1-6.8-2.4Zm2.4-2.4 9.3 9.3 2.3-2.3L27.2.9l-2.3 2.3Z" class="logo_s3"/><path id="Path_17" d="m31.1 22.9-2.6-2.6-2.3 6.8-7.3 2.4 2.6 2.6 7.1-2.3L31 23Zm2.4 2.4-9.3 9.3 2.3 2.3 9.3-9.3-2.3-2.3Z" class="logo_s3"/><path id="Path_21" d="m14.1 31.4 2.6-2.6-6.8-2.3-2.4-7.3-2.6 2.6 2.3 7.1 6.8 2.4Zm-2.4 2.4-9.4-9.3L0 26.8l9.3 9.3 2.3-2.3Z" class="logo_s3"/></g><path id="Rectangle_3" fill="#ce1eb3" d="M14.7 15c2-2 5.2-2 7.2 0s2 5.2 0 7.2-5.2 2-7.2 0-2-5.2 0-7.2Z"/></g></svg>